# xmcd CD database file
#
# Track frame offsets:
#	150
#	25828
#	47742
#	72432
#	105323
#	140099
#	169851
#	187419
#
# Disc length: 2849 seconds
#
# Revision: 0
# Processed by: cddbd v1.5.2PL0 Copyright (c) Steve Scherf et al.
# Submitted via: CDex 1.70beta2
#
DISCID=740b1f08
DTITLE=Lovesome Thing - Adoraba
DYEAR=2007
DGENRE=Jazz
TTITLE0=Bad Look
TTITLE1=Adoraba
TTITLE2=Cleveland
TTITLE3=Jody Grind
TTITLE4=High Modes
TTITLE5=Hullabaloo
TTITLE6=The Original Francois
TTITLE7=Yellow
EXTD=YEAR: 2007
EXTT0=
EXTT1=
EXTT2=
EXTT3=
EXTT4=
EXTT5=
EXTT6=
EXTT7=
PLAYORDER=
